<?xml version="1.0" encoding="UTF-8" standalone="no"?>
<svg
   width="110"
   height="96"
   version="1.1"
   id="svg33"
   sodipodi:docname="logo.svg"
   inkscape:version="1.1 (c4e8f9e, 2021-05-24)"
   xmlns:inkscape="http://www.inkscape.org/namespaces/inkscape"
   xmlns:sodipodi="http://sodipodi.sourceforge.net/DTD/sodipodi-0.dtd"
   xmlns="http://www.w3.org/2000/svg"
   xmlns:svg="http://www.w3.org/2000/svg">
  <defs
     id="defs37" />
  <sodipodi:namedview
     id="namedview35"
     pagecolor="#505050"
     bordercolor="#eeeeee"
     borderopacity="1"
     inkscape:pageshadow="0"
     inkscape:pageopacity="0"
     inkscape:pagecheckerboard="0"
     showgrid="false"
     inkscape:snap-nodes="false"
     inkscape:snap-others="false"
     inkscape:zoom="10.683228"
     inkscape:cx="40.015995"
     inkscape:cy="47.73838"
     inkscape:window-width="2560"
     inkscape:window-height="1440"
     inkscape:window-x="0"
     inkscape:window-y="0"
     inkscape:window-maximized="0"
     inkscape:current-layer="svg33" />
  <style
     type="text/css"
     id="style9">.stick { stroke-width:3; } </style>
  <g
     id="line11"
     class="stick"
     transform="matrix(1.0316132,0,0,1.0316132,1.348846,-12.360509)">
    <path
       style="color:#000000;fill:#000000;stroke-width:3;-inkscape-stroke:none"
       d="M 2,102 84.635185,71.923256"
       id="path825" />
    <path
       style="color:#000000;fill:#7969e1;-inkscape-stroke:none"
       d="M 84.123047,70.513672 1.4863281,100.58984 2.5136719,103.41016 85.148437,73.332031 Z"
       id="path827" />
  </g>
  <g
     id="line13"
     class="stick"
     transform="matrix(1.0316132,0,0,1.0316132,1.348846,-12.360509)">
    <path
       style="color:#000000;fill:#000000;stroke-width:3;-inkscape-stroke:none"
       d="M 102,102 19.364819,71.923256"
       id="path817" />
    <path
       style="color:#000000;fill:#7969e1;-inkscape-stroke:none"
       d="m 19.876953,70.513672 -1.025391,2.818359 82.634768,30.078129 1.02734,-2.82032 z"
       id="path819" />
  </g>
  <g
     id="line15"
     class="stick"
     transform="matrix(1.0316132,0,0,1.0316132,1.348846,-12.360509)">
    <path
       style="color:#000000;fill:#000000;stroke-width:3;-inkscape-stroke:none"
       d="M 2,102 77,58.69873"
       id="path809" />
    <path
       style="color:#000000;fill:#7263d4;-inkscape-stroke:none"
       d="m 76.25,57.400391 -75,43.300779 1.5,2.59766 75,-43.300783 z"
       id="path811" />
  </g>
  <g
     id="line17"
     class="stick"
     transform="matrix(1.0316132,0,0,1.0316132,1.348846,-12.360509)">
    <path
       style="color:#000000;fill:#000000;stroke-width:3;-inkscape-stroke:none"
       d="M 102,102 27,58.69873"
       id="path801" />
    <path
       style="color:#000000;fill:#7263d4;-inkscape-stroke:none"
       d="m 27.75,57.400391 -1.5,2.597656 75,43.300783 1.5,-2.59766 z"
       id="path803" />
  </g>
  <g
     id="line19"
     class="stick"
     transform="matrix(1.0316132,0,0,1.0316132,1.348846,-12.360509)">
    <path
       style="color:#000000;fill:#000000;stroke-width:3;-inkscape-stroke:none"
       d="M 2,102 69.364815,45.474205"
       id="path793" />
    <path
       style="color:#000000;fill:#6b5dc8;-inkscape-stroke:none"
       d="M 68.400391,44.324219 1.0351562,100.85156 2.9648438,103.14844 70.328125,46.623047 Z"
       id="path795" />
  </g>
  <g
     id="line21"
     class="stick"
     transform="matrix(1.0316132,0,0,1.0316132,1.348846,-12.360509)">
    <path
       style="color:#000000;fill:#000000;stroke-width:3;-inkscape-stroke:none"
       d="M 102,102 34.635181,45.474205"
       id="path785" />
    <path
       style="color:#000000;fill:#6b5dc8;-inkscape-stroke:none"
       d="m 35.599609,44.324219 -1.927734,2.298828 67.363285,56.525393 1.92968,-2.29688 z"
       id="path787" />
  </g>
  <g
     id="line23"
     class="stick"
     transform="matrix(1.0316132,0,0,1.0316132,1.348846,-12.360509)">
    <path
       style="color:#000000;fill:#000000;stroke-width:3;-inkscape-stroke:none"
       d="M 2,102 61.239628,31.400963"
       id="path777" />
    <path
       style="color:#000000;fill:#6457bb;-inkscape-stroke:none"
       d="M 60.089844,30.4375 0.8515625,101.03516 3.1484375,102.96484 62.388672,32.365234 Z"
       id="path779" />
  </g>
  <g
     id="line25"
     class="stick"
     transform="matrix(1.0316132,0,0,1.0316132,1.348846,-12.360509)">
    <path
       style="color:#000000;fill:#000000;stroke-width:3;-inkscape-stroke:none"
       d="M 102,102 42.760372,31.400963"
       id="path769" />
    <path
       style="color:#000000;fill:#6457bb;-inkscape-stroke:none"
       d="m 43.910156,30.4375 -2.298828,1.927734 59.240232,70.599606 2.29688,-1.92968 z"
       id="path771" />
  </g>
  <g
     id="line27"
     class="stick"
     transform="matrix(1.0316132,0,0,1.0316132,1.348846,-12.360509)">
    <path
       style="color:#000000;fill:#000000;stroke-width:3;-inkscape-stroke:none"
       d="M 2,102 52,15.39746"
       id="path761" />
    <path
       style="color:#000000;fill:#5d51ae;-inkscape-stroke:none"
       d="M 50.701172,14.646484 0.70117187,101.25 3.2988281,102.75 53.298828,16.146484 Z"
       id="path763" />
  </g>
  <g
     id="line29"
     class="stick"
     transform="matrix(1.0316132,0,0,1.0316132,1.348846,-12.360509)">
    <path
       style="color:#000000;fill:#000000;stroke-width:3;-inkscape-stroke:none"
       d="M 102,102 52,15.39746"
       id="path753" />
    <path
       style="color:#000000;fill:#5d51ae;-inkscape-stroke:none"
       d="m 53.298828,14.646484 -2.597656,1.5 49.999998,86.603516 2.59766,-1.5 z"
       id="path755" />
  </g>
  <path
     style="color:#000000;fill:#504695;stroke-width:1.03161;-inkscape-stroke:none"
     d="M 54.992734,0.01079062 0.09639404,95.505663 4.4524461,94.181247 54.992734,6.5981466 105.53723,94.146605 l 4.52249,1.605923 z"
     id="polyline31"
     sodipodi:nodetypes="ccccccc" />
</svg>
